<?xml version="1.0"?>
<svg version="1.1" id="圖層_1" xmlns="http://www.w3.org/2000/svg" x="0" y="0" viewBox="0 0 100 100" xml:space="preserve"><path d="M21.9 23.8v13.6H11v35.8c0 3 2.4 5.4 5.4 5.4H83.5c3 0 5.4-2.4 5.4-5.4V23.8h-67z" fill="#e0e0e0" stroke="#333" stroke-width="3" stroke-miterlimit="10"/><path d="M16.4 78.7h0c-3 0-5.4-2.4-5.4-5.4V37.4h10.9v35.8c0 3.1-2.5 5.5-5.5 5.5z" fill="#666" stroke="#333" stroke-width="3" stroke-miterlimit="10"/><path fill="#fff" stroke="#333" stroke-width="3" stroke-miterlimit="10" d="M29.3 30.2h19.3v19.3H29.3z"/><g><path fill="none" stroke="#333" stroke-width="3" stroke-miterlimit="10" d="M54.7 30.2H83"/><path fill="none" stroke="#333" stroke-width="3" stroke-miterlimit="10" d="M54.7 37.1H83"/><path fill="none" stroke="#333" stroke-width="3" stroke-miterlimit="10" d="M54.7 44.1H83"/><path fill="none" stroke="#333" stroke-width="3" stroke-miterlimit="10" d="M54.7 51H83"/><path fill="none" stroke="#333" stroke-width="3" stroke-miterlimit="10" d="M54.7 58H83"/><path fill="none" stroke="#333" stroke-width="3" stroke-miterlimit="10" d="M54.7 64.9H83"/><path fill="none" stroke="#333" stroke-width="3" stroke-miterlimit="10" d="M54.7 71.9H83"/></g><metadata xmlns:d="https://loading.io/stock/"><d:name>newspaper</d:name><d:tags>news,information,publish,post,read,media,newspaper,web application</d:tags><d:license>pro</d:license><d:slug>p88o89</d:slug></metadata></svg>